<svg xmlns="http://www.w3.org/2000/svg" xmlns:xlink="http://www.w3.org/1999/xlink" xmlns:lucid="lucid" width="1560" height="717"><g transform="translate(-80 -180)" lucid:page-tab-id="0_0"><path d="M0 0h1760v1360H0z" fill="#fff"/><path d="M301.5 534.38h68.3c.4 0 .7.3.7.68 0 .38.3.7.7.7h52.42" stroke="#333" fill="none"/><path d="M301.5 534.88H301l.02-.5-.02-.5h.53z" fill="#333"/><path d="M438.38 535.75l-14.26 4.64v-9.3z" stroke="#333" fill="#333"/><path d="M1060.5 798.5h87.5c6.63 0 12-5.37 12-12V581.37c0-6.62 5.37-12 12-12h71.62" stroke="#333" fill="none"/><path d="M1060.5 799h-.5v-1h.5z" fill="#333"/><path d="M1258.38 569.38l-14.26 4.63v-9.26z" stroke="#333" fill="#333"/><path d="M1060.5 280h87.5c6.63 0 12 5.37 12 12v202.25c0 6.63 5.37 12 12 12h71.62" stroke="#333" fill="none"/><path d="M1060.5 280.5h-.5v-1h.5z" fill="#333"/><path d="M1258.38 506.25l-14.26 4.64v-9.3z" stroke="#333" fill="#333"/><path d="M1460.5 531.5h43.12" stroke="#333" fill="none"/><path d="M1460.5 532h-.5v-1h.5z" fill="#333"/><path d="M1518.38 531.5l-14.26 4.64v-9.28z" stroke="#333" fill="#333"/><path d="M300 534.38c0 23.67-22.4 42.87-50 42.87s-50-19.2-50-42.88c0-23.67 22.4-42.87 50-42.87s50 19.2 50 42.88z" stroke="#333" stroke-width="2" fill="#225798"/><use xlink:href="#a" transform="matrix(1,0,0,1,200,579.25) translate(19.5462962962963 31.11111111111111)"/><path d="M1620 531.5c0 24.44-22.4 44.25-50 44.25s-50-19.8-50-44.25c0-24.44 22.4-44.25 50-44.25s50 19.8 50 44.25z" stroke="#333" stroke-width="6" fill="#d7e9ff"/><path d="M1608.25 531.5c0 18.43-17.13 33.36-38.25 33.36s-38.25-14.93-38.25-33.36 17.13-33.36 38.25-33.36 38.25 14.93 38.25 33.36z" fill="#333"/><use xlink:href="#b" transform="matrix(1,0,0,1,1520,577.75) translate(24.320987654320984 31.11111111111111)"/><path d="M440 465c0-2.76 2.24-5 5-5h170c2.76 0 5 2.24 5 5v141.5c0 2.76-2.24 5-5 5H445c-2.76 0-5-2.24-5-5z" stroke="#000" stroke-opacity="0" stroke-width="2" fill="#3278ca"/><use xlink:href="#c" transform="matrix(1,0,0,1,440,460) translate(16.595679012345713 82.47222222222221)"/><path d="M820 205c0-2.76 2.24-5 5-5h230c2.76 0 5 2.24 5 5v150c0 2.76-2.24 5-5 5H825c-2.76 0-5-2.24-5-5z" stroke="#000" stroke-opacity="0" stroke-width="2" fill="#75b2ff"/><use xlink:href="#d" transform="matrix(1,0,0,1,820,200) translate(23.56172839506175 40.222222222222214)"/><use xlink:href="#e" transform="matrix(1,0,0,1,820,200) translate(153.4753086419753 40.222222222222214)"/><use xlink:href="#f" transform="matrix(1,0,0,1,820,200) translate(15.58641975308646 85.55555555555554)"/><use xlink:href="#g" transform="matrix(1,0,0,1,820,200) translate(106.98765432098766 85.55555555555554)"/><use xlink:href="#h" transform="matrix(1,0,0,1,820,200) translate(53.99382716049385 130.88888888888886)"/><path d="M820 725c0-2.76 2.24-5 5-5h230c2.76 0 5 2.24 5 5v147c0 2.76-2.24 5-5 5H825c-2.76 0-5-2.24-5-5z" stroke="#000" stroke-opacity="0" stroke-width="2" fill="#75b2ff"/><use xlink:href="#d" transform="matrix(1,0,0,1,820,720) translate(23.56172839506175 40.034722222222214)"/><use xlink:href="#e" transform="matrix(1,0,0,1,820,720) translate(153.4753086419753 40.034722222222214)"/><use xlink:href="#i" transform="matrix(1,0,0,1,820,720) translate(79.5462962962963 85.36805555555554)"/><use xlink:href="#j" transform="matrix(1,0,0,1,820,720) translate(21.567901234567927 130.70138888888886)"/><path d="M835 456.5c0-2.76 2.24-5 5-5h235c2.76 0 5 2.24 5 5v150c0 2.76-2.24 5-5 5H840c-2.76 0-5-2.24-5-5z" stroke="#000" stroke-opacity="0" stroke-width="2" fill="#75b2ff"/><use xlink:href="#d" transform="matrix(1,0,0,1,835,451.5) translate(26.06172839506175 40.222222222222214)"/><use xlink:href="#e" transform="matrix(1,0,0,1,835,451.5) translate(155.9753086419753 40.222222222222214)"/><use xlink:href="#f" transform="matrix(1,0,0,1,835,451.5) translate(10.793209876543244 85.55555555555554)"/><use xlink:href="#k" transform="matrix(1,0,0,1,835,451.5) translate(102.19444444444444 85.55555555555554)"/><use xlink:href="#l" transform="matrix(1,0,0,1,835,451.5) translate(43.84876543209879 130.88888888888886)"/><path d="M100 266.67c0-4.42 3.58-8 8-8h836.75c4.42 0 8 3.58 8 8v37.65c0 4.42-3.58 8-8 8H108c-4.42 0-8-3.58-8-8z" stroke="#000" stroke-opacity="0" stroke-width="2" fill="#fff" fill-opacity="0"/><use xlink:href="#m" transform="matrix(1,0,0,1,104,262.6666666666667) translate(291.97666666666674 37.87999999999998)"/><use xlink:href="#n" transform="matrix(1,0,0,1,104,262.6666666666667) translate(376.55444444444447 37.87999999999998)"/><path d="M395 312.32h266" stroke="#a9afb8" stroke-width="2" fill="none"/><path d="M395.03 312.32H391v-1h4.03zM665 312.32h-4.03v-1H665z" fill="#a9afb8"/><path d="M100 320.32c0-4.42 3.58-8 8-8h837.7c4.43 0 8 3.58 8 8v2.84c0 4.42-3.57 8-8 8H108c-4.42 0-8-3.58-8-8z" stroke="#000" stroke-opacity="0" stroke-width="2" fill="#fff" fill-opacity="0"/><path d="M1260 460.75c0-2.76 2.24-5 5-5h190c2.76 0 5 2.24 5 5v141.5c0 2.76-2.24 5-5 5h-190c-2.76 0-5-2.24-5-5z" stroke="#000" stroke-opacity="0" stroke-width="2" fill="#a5ceff"/><use xlink:href="#o" transform="matrix(1,0,0,1,1260,455.75) translate(67.46913580246914 82.47222222222221)"/><path d="M620.5 497.44H708c6.63 0 12-5.37 12-12V292c0-6.63 5.37-12 12-12h71.62" stroke="#333" fill="none"/><path d="M620.5 497.94h-.5v-1h.5z" fill="#333"/><path d="M818.38 280l-14.26 4.64v-9.28z" stroke="#333" fill="#333"/><path d="M620.5 572.43H708c6.63 0 12 5.37 12 12V786.5c0 6.63 5.37 12 12 12h71.62" stroke="#333" fill="none"/><path d="M620.5 572.93h-.5v-1h.5z" fill="#333"/><path d="M818.38 798.5l-14.26 4.64v-9.28z" stroke="#333" fill="#333"/><path d="M1080.5 531.5h163.12" stroke="#333" fill="none"/><path d="M1080.5 532h-.5v-1h.5z" fill="#333"/><path d="M1258.38 531.5l-14.26 4.64v-9.28z" stroke="#333" fill="#333"/><path d="M620.5 535.75h198.12" stroke="#333" fill="none"/><path d="M620.5 536.25h-.5v-1h.5z" fill="#333"/><path d="M833.38 535.75l-14.26 4.64v-9.3z" stroke="#333" fill="#333"/><defs><path fill="#333" d="M185-189c-5-48-123-54-124 2 14 75 158 14 163 119 3 78-121 87-175 55-17-10-28-26-33-46l33-7c5 56 141 63 141-1 0-78-155-14-162-118-5-82 145-84 179-34 5 7 8 16 11 25" id="p"/><path fill="#333" d="M59-47c-2 24 18 29 38 22v24C64 9 27 4 27-40v-127H5v-23h24l9-43h21v43h35v23H59v120" id="q"/><path fill="#333" d="M141-36C126-15 110 5 73 4 37 3 15-17 15-53c-1-64 63-63 125-63 3-35-9-54-41-54-24 1-41 7-42 31l-33-3c5-37 33-52 76-52 45 0 72 20 72 64v82c-1 20 7 32 28 27v20c-31 9-61-2-59-35zM48-53c0 20 12 33 32 33 41-3 63-29 60-74-43 2-92-5-92 41" id="r"/><path fill="#333" d="M114-163C36-179 61-72 57 0H25l-1-190h30c1 12-1 29 2 39 6-27 23-49 58-41v29" id="s"/><g id="a"><use transform="matrix(0.08024691358024691,0,0,0.08024691358024691,0,0)" xlink:href="#p"/><use transform="matrix(0.08024691358024691,0,0,0.08024691358024691,19.25925925925926,0)" xlink:href="#q"/><use transform="matrix(0.08024691358024691,0,0,0.08024691358024691,27.28395061728395,0)" xlink:href="#r"/><use transform="matrix(0.08024691358024691,0,0,0.08024691358024691,43.33333333333333,0)" xlink:href="#s"/><use transform="matrix(0.08024691358024691,0,0,0.08024691358024691,52.8827160493827,0)" xlink:href="#q"/></g><path fill="#333" d="M30 0v-248h187v28H63v79h144v27H63v87h162V0H30" id="t"/><path fill="#333" d="M117-194c89-4 53 116 60 194h-32v-121c0-31-8-49-39-48C34-167 62-67 57 0H25l-1-190h30c1 10-1 24 2 32 11-22 29-35 61-36" id="u"/><path fill="#333" d="M85-194c31 0 48 13 60 33l-1-100h32l1 261h-30c-2-10 0-23-3-31C134-8 116 4 85 4 32 4 16-35 15-94c0-66 23-100 70-100zm9 24c-40 0-46 34-46 75 0 40 6 74 45 74 42 0 51-32 51-76 0-42-9-74-50-73" id="v"/><g id="b"><use transform="matrix(0.08024691358024691,0,0,0.08024691358024691,0,0)" xlink:href="#t"/><use transform="matrix(0.08024691358024691,0,0,0.08024691358024691,19.25925925925926,0)" xlink:href="#u"/><use transform="matrix(0.08024691358024691,0,0,0.08024691358024691,35.308641975308646,0)" xlink:href="#v"/></g><path fill="#fff" d="M140-251c81 0 123 46 123 126C263-46 219 4 140 4 59 4 17-45 17-125s42-126 123-126zm0 227c63 0 89-41 89-101s-29-99-89-99c-61 0-89 39-89 99S79-25 140-24" id="w"/><path fill="#fff" d="M117-194c89-4 53 116 60 194h-32v-121c0-31-8-49-39-48C34-167 62-67 57 0H25l-1-190h30c1 10-1 24 2 32 11-22 29-35 61-36" id="x"/><path fill="#fff" d="M115-194c53 0 69 39 70 98 0 66-23 100-70 100C84 3 66-7 56-30L54 0H23l1-261h32v101c10-23 28-34 59-34zm-8 174c40 0 45-34 45-75 0-40-5-75-45-74-42 0-51 32-51 76 0 43 10 73 51 73" id="y"/><path fill="#fff" d="M100-194c62-1 85 37 85 99 1 63-27 99-86 99S16-35 15-95c0-66 28-99 85-99zM99-20c44 1 53-31 53-75 0-43-8-75-51-75s-53 32-53 75 10 74 51 75" id="z"/><path fill="#fff" d="M141-36C126-15 110 5 73 4 37 3 15-17 15-53c-1-64 63-63 125-63 3-35-9-54-41-54-24 1-41 7-42 31l-33-3c5-37 33-52 76-52 45 0 72 20 72 64v82c-1 20 7 32 28 27v20c-31 9-61-2-59-35zM48-53c0 20 12 33 32 33 41-3 63-29 60-74-43 2-92-5-92 41" id="A"/><path fill="#fff" d="M114-163C36-179 61-72 57 0H25l-1-190h30c1 12-1 29 2 39 6-27 23-49 58-41v29" id="B"/><path fill="#fff" d="M85-194c31 0 48 13 60 33l-1-100h32l1 261h-30c-2-10 0-23-3-31C134-8 116 4 85 4 32 4 16-35 15-94c0-66 23-100 70-100zm9 24c-40 0-46 34-46 75 0 40 6 74 45 74 42 0 51-32 51-76 0-42-9-74-50-73" id="C"/><g id="c"><use transform="matrix(0.10493827160493824,0,0,0.10493827160493824,0,0)" xlink:href="#w"/><use transform="matrix(0.10493827160493824,0,0,0.10493827160493824,29.382716049382708,0)" xlink:href="#x"/><use transform="matrix(0.10493827160493824,0,0,0.10493827160493824,50.37037037037035,0)" xlink:href="#y"/><use transform="matrix(0.10493827160493824,0,0,0.10493827160493824,71.358024691358,0)" xlink:href="#z"/><use transform="matrix(0.10493827160493824,0,0,0.10493827160493824,92.34567901234564,0)" xlink:href="#A"/><use transform="matrix(0.10493827160493824,0,0,0.10493827160493824,113.3333333333333,0)" xlink:href="#B"/><use transform="matrix(0.10493827160493824,0,0,0.10493827160493824,125.82098765432093,0)" xlink:href="#C"/></g><path fill="#fff" d="M232-93c-1 65-40 97-104 97C67 4 28-28 28-90v-158h33c8 89-33 224 67 224 102 0 64-133 71-224h33v155" id="D"/><path fill="#fff" d="M115-194c55 1 70 41 70 98S169 2 115 4C84 4 66-9 55-30l1 105H24l-1-265h31l2 30c10-21 28-34 59-34zm-8 174c40 0 45-34 45-75s-6-73-45-74c-42 0-51 32-51 76 0 43 10 73 51 73" id="E"/><path fill="#fff" d="M24 0v-261h32V0H24" id="F"/><g id="d"><use transform="matrix(0.10493827160493824,0,0,0.10493827160493824,0,0)" xlink:href="#D"/><use transform="matrix(0.10493827160493824,0,0,0.10493827160493824,27.179012345679002,0)" xlink:href="#E"/><use transform="matrix(0.10493827160493824,0,0,0.10493827160493824,48.16666666666665,0)" xlink:href="#F"/><use transform="matrix(0.10493827160493824,0,0,0.10493827160493824,56.45679012345677,0)" xlink:href="#z"/><use transform="matrix(0.10493827160493824,0,0,0.10493827160493824,77.44444444444441,0)" xlink:href="#A"/><use transform="matrix(0.10493827160493824,0,0,0.10493827160493824,98.43209876543206,0)" xlink:href="#C"/></g><g id="e"><use transform="matrix(0.10493827160493824,0,0,0.10493827160493824,0,0)" xlink:href="#A"/><use transform="matrix(0.10493827160493824,0,0,0.10493827160493824,20.987654320987648,0)" xlink:href="#x"/><use transform="matrix(0.10493827160493824,0,0,0.10493827160493824,41.975308641975296,0)" xlink:href="#C"/></g><path fill="#fff" d="M137 0h-34L2-248h35l83 218 83-218h36" id="G"/><path fill="#fff" d="M24-231v-30h32v30H24zM24 0v-190h32V0H24" id="H"/><path fill="#fff" d="M100-194c63 0 86 42 84 106H49c0 40 14 67 53 68 26 1 43-12 49-29l28 8c-11 28-37 45-77 45C44 4 14-33 15-96c1-61 26-98 85-98zm52 81c6-60-76-77-97-28-3 7-6 17-6 28h103" id="I"/><path fill="#fff" d="M206 0h-36l-40-164L89 0H53L-1-190h32L70-26l43-164h34l41 164 42-164h31" id="J"/><g id="f"><use transform="matrix(0.10493827160493824,0,0,0.10493827160493824,0,0)" xlink:href="#G"/><use transform="matrix(0.10493827160493824,0,0,0.10493827160493824,24.45061728395061,0)" xlink:href="#H"/><use transform="matrix(0.10493827160493824,0,0,0.10493827160493824,32.74074074074073,0)" xlink:href="#I"/><use transform="matrix(0.10493827160493824,0,0,0.10493827160493824,53.72839506172838,0)" xlink:href="#J"/></g><path fill="#fff" d="M205 0l-28-72H64L36 0H1l101-248h38L239 0h-34zm-38-99l-47-123c-12 45-31 82-46 123h93" id="K"/><path fill="#fff" d="M84 4C-5 8 30-112 23-190h32v120c0 31 7 50 39 49 72-2 45-101 50-169h31l1 190h-30c-1-10 1-25-2-33-11 22-28 36-60 37" id="L"/><g id="g"><use transform="matrix(0.10493827160493824,0,0,0.10493827160493824,0,0)" xlink:href="#K"/><use transform="matrix(0.10493827160493824,0,0,0.10493827160493824,25.185185185185176,0)" xlink:href="#x"/><use transform="matrix(0.10493827160493824,0,0,0.10493827160493824,46.17283950617282,0)" xlink:href="#x"/><use transform="matrix(0.10493827160493824,0,0,0.10493827160493824,67.16049382716047,0)" xlink:href="#L"/><use transform="matrix(0.10493827160493824,0,0,0.10493827160493824,88.14814814814811,0)" xlink:href="#A"/><use transform="matrix(0.10493827160493824,0,0,0.10493827160493824,109.13580246913574,0)" xlink:href="#F"/></g><path fill="#fff" d="M233-177c-1 41-23 64-60 70L243 0h-38l-65-103H63V0H30v-248c88 3 205-21 203 71zM63-129c60-2 137 13 137-47 0-61-80-42-137-45v92" id="M"/><path fill="#fff" d="M59-47c-2 24 18 29 38 22v24C64 9 27 4 27-40v-127H5v-23h24l9-43h21v43h35v23H59v120" id="N"/><path fill="#fff" d="M135-143c-3-34-86-38-87 0 15 53 115 12 119 90S17 21 10-45l28-5c4 36 97 45 98 0-10-56-113-15-118-90-4-57 82-63 122-42 12 7 21 19 24 35" id="O"/><g id="h"><use transform="matrix(0.10493827160493824,0,0,0.10493827160493824,0,0)" xlink:href="#M"/><use transform="matrix(0.10493827160493824,0,0,0.10493827160493824,27.179012345679002,0)" xlink:href="#I"/><use transform="matrix(0.10493827160493824,0,0,0.10493827160493824,48.16666666666665,0)" xlink:href="#N"/><use transform="matrix(0.10493827160493824,0,0,0.10493827160493824,58.66049382716047,0)" xlink:href="#L"/><use transform="matrix(0.10493827160493824,0,0,0.10493827160493824,79.64814814814812,0)" xlink:href="#B"/><use transform="matrix(0.10493827160493824,0,0,0.10493827160493824,92.13580246913577,0)" xlink:href="#x"/><use transform="matrix(0.10493827160493824,0,0,0.10493827160493824,113.12345679012343,0)" xlink:href="#O"/></g><g id="i"><use transform="matrix(0.10493827160493824,0,0,0.10493827160493824,0,0)" xlink:href="#G"/><use transform="matrix(0.10493827160493824,0,0,0.10493827160493824,24.45061728395061,0)" xlink:href="#H"/><use transform="matrix(0.10493827160493824,0,0,0.10493827160493824,32.74074074074073,0)" xlink:href="#I"/><use transform="matrix(0.10493827160493824,0,0,0.10493827160493824,53.72839506172838,0)" xlink:href="#J"/></g><path fill="#fff" d="M266 0h-40l-56-210L115 0H75L2-248h35L96-30l15-64 43-154h32l59 218 59-218h35" id="P"/><path fill="#fff" d="M106-169C34-169 62-67 57 0H25v-261h32l-1 103c12-21 28-36 61-36 89 0 53 116 60 194h-32v-121c2-32-8-49-39-48" id="Q"/><path fill="#fff" d="M177-190C167-65 218 103 67 71c-23-6-38-20-44-43l32-5c15 47 100 32 89-28v-30C133-14 115 1 83 1 29 1 15-40 15-95c0-56 16-97 71-98 29-1 48 16 59 35 1-10 0-23 2-32h30zM94-22c36 0 50-32 50-73 0-42-14-75-50-75-39 0-46 34-46 75s6 73 46 73" id="R"/><g id="j"><use transform="matrix(0.10493827160493824,0,0,0.10493827160493824,0,0)" xlink:href="#P"/><use transform="matrix(0.10493827160493824,0,0,0.10493827160493824,35.57407407407406,0)" xlink:href="#H"/><use transform="matrix(0.10493827160493824,0,0,0.10493827160493824,43.86419753086418,0)" xlink:href="#N"/><use transform="matrix(0.10493827160493824,0,0,0.10493827160493824,54.358024691358004,0)" xlink:href="#Q"/><use transform="matrix(0.10493827160493824,0,0,0.10493827160493824,75.34567901234566,0)" xlink:href="#Q"/><use transform="matrix(0.10493827160493824,0,0,0.10493827160493824,96.3333333333333,0)" xlink:href="#z"/><use transform="matrix(0.10493827160493824,0,0,0.10493827160493824,117.32098765432094,0)" xlink:href="#F"/><use transform="matrix(0.10493827160493824,0,0,0.10493827160493824,125.61111111111107,0)" xlink:href="#C"/><use transform="matrix(0.10493827160493824,0,0,0.10493827160493824,146.59876543209873,0)" xlink:href="#H"/><use transform="matrix(0.10493827160493824,0,0,0.10493827160493824,154.88888888888886,0)" xlink:href="#x"/><use transform="matrix(0.10493827160493824,0,0,0.10493827160493824,175.8765432098765,0)" xlink:href="#R"/></g><path fill="#fff" d="M240 0l2-218c-23 76-54 145-80 218h-23L58-218 59 0H30v-248h44l77 211c21-75 51-140 76-211h43V0h-30" id="S"/><path fill="#fff" d="M179-190L93 31C79 59 56 82 12 73V49c39 6 53-20 64-50L1-190h34L92-34l54-156h33" id="T"/><g id="k"><use transform="matrix(0.10493827160493824,0,0,0.10493827160493824,0,0)" xlink:href="#S"/><use transform="matrix(0.10493827160493824,0,0,0.10493827160493824,31.376543209876534,0)" xlink:href="#z"/><use transform="matrix(0.10493827160493824,0,0,0.10493827160493824,52.36419753086418,0)" xlink:href="#x"/><use transform="matrix(0.10493827160493824,0,0,0.10493827160493824,73.35185185185183,0)" xlink:href="#N"/><use transform="matrix(0.10493827160493824,0,0,0.10493827160493824,83.84567901234566,0)" xlink:href="#Q"/><use transform="matrix(0.10493827160493824,0,0,0.10493827160493824,104.8333333333333,0)" xlink:href="#F"/><use transform="matrix(0.10493827160493824,0,0,0.10493827160493824,113.12345679012343,0)" xlink:href="#T"/></g><path fill="#fff" d="M185-189c-5-48-123-54-124 2 14 75 158 14 163 119 3 78-121 87-175 55-17-10-28-26-33-46l33-7c5 56 141 63 141-1 0-78-155-14-162-118-5-82 145-84 179-34 5 7 8 16 11 25" id="U"/><path fill="#fff" d="M96-169c-40 0-48 33-48 73s9 75 48 75c24 0 41-14 43-38l32 2c-6 37-31 61-74 61-59 0-76-41-82-99-10-93 101-131 147-64 4 7 5 14 7 22l-32 3c-4-21-16-35-41-35" id="V"/><g id="l"><use transform="matrix(0.10493827160493824,0,0,0.10493827160493824,0,0)" xlink:href="#U"/><use transform="matrix(0.10493827160493824,0,0,0.10493827160493824,25.185185185185176,0)" xlink:href="#V"/><use transform="matrix(0.10493827160493824,0,0,0.10493827160493824,44.07407407407406,0)" xlink:href="#Q"/><use transform="matrix(0.10493827160493824,0,0,0.10493827160493824,65.0617283950617,0)" xlink:href="#I"/><use transform="matrix(0.10493827160493824,0,0,0.10493827160493824,86.04938271604935,0)" xlink:href="#C"/><use transform="matrix(0.10493827160493824,0,0,0.10493827160493824,107.037037037037,0)" xlink:href="#L"/><use transform="matrix(0.10493827160493824,0,0,0.10493827160493824,128.02469135802465,0)" xlink:href="#F"/><use transform="matrix(0.10493827160493824,0,0,0.10493827160493824,136.31481481481478,0)" xlink:href="#I"/></g><path fill="#a9afb8" d="M136-208V0H84v-208H4v-40h212v40h-80" id="W"/><path fill="#a9afb8" d="M133-34C117-15 103 5 69 4 32 3 11-16 11-54c-1-60 55-63 116-61 1-26-3-47-28-47-18 1-26 9-28 27l-52-2c7-38 36-58 82-57s74 22 75 68l1 82c-1 14 12 18 25 15v27c-30 8-71 5-69-32zm-48 3c29 0 43-24 42-57-32 0-66-3-65 30 0 17 8 27 23 27" id="X"/><path fill="#a9afb8" d="M144 0l-44-69L55 0H2l70-98-66-92h53l41 62 40-62h54l-67 91 71 99h-54" id="Y"/><g id="m"><use transform="matrix(0.12222222222222215,0,0,0.12222222222222215,0,0)" xlink:href="#W"/><use transform="matrix(0.12222222222222215,0,0,0.12222222222222215,23.466666666666654,0)" xlink:href="#X"/><use transform="matrix(0.12222222222222215,0,0,0.12222222222222215,47.91111111111108,0)" xlink:href="#Y"/></g><path fill="#a9afb8" d="M220-157c-53 9-28 100-34 157h-49v-107c1-27-5-49-29-50C55-147 81-57 75 0H25l-1-190h47c2 12-1 28 3 38 10-53 101-56 108 0 13-22 24-43 59-42 82 1 51 116 57 194h-49v-107c-1-25-5-48-29-50" id="Z"/><path fill="#a9afb8" d="M135-194c87-1 58 113 63 194h-50c-7-57 23-157-34-157-59 0-34 97-39 157H25l-1-190h47c2 12-1 28 3 38 12-26 28-41 61-42" id="aa"/><path fill="#a9afb8" d="M195-6C206 82 75 100 31 46c-4-6-6-13-8-21l49-6c3 16 16 24 34 25 40 0 42-37 40-79-11 22-30 35-61 35-53 0-70-43-70-97 0-56 18-96 73-97 30 0 46 14 59 34l2-30h47zm-90-29c32 0 41-27 41-63 0-35-9-62-40-62-32 0-39 29-40 63 0 36 9 62 39 62" id="ab"/><path fill="#a9afb8" d="M185-48c-13 30-37 53-82 52C43 2 14-33 14-96s30-98 90-98c62 0 83 45 84 108H66c0 31 8 55 39 56 18 0 30-7 34-22zm-45-69c5-46-57-63-70-21-2 6-4 13-4 21h74" id="ac"/><path fill="#a9afb8" d="M135-150c-39-12-60 13-60 57V0H25l-1-190h47c2 13-1 29 3 40 6-28 27-53 61-41v41" id="ad"/><g id="n"><use transform="matrix(0.12222222222222215,0,0,0.12222222222222215,0,0)" xlink:href="#Z"/><use transform="matrix(0.12222222222222215,0,0,0.12222222222222215,39.111111111111086,0)" xlink:href="#X"/><use transform="matrix(0.12222222222222215,0,0,0.12222222222222215,63.555555555555515,0)" xlink:href="#aa"/><use transform="matrix(0.12222222222222215,0,0,0.12222222222222215,90.32222222222217,0)" xlink:href="#X"/><use transform="matrix(0.12222222222222215,0,0,0.12222222222222215,114.7666666666666,0)" xlink:href="#ab"/><use transform="matrix(0.12222222222222215,0,0,0.12222222222222215,141.53333333333325,0)" xlink:href="#ac"/><use transform="matrix(0.12222222222222215,0,0,0.12222222222222215,165.97777777777767,0)" xlink:href="#ad"/></g><path fill="#333" d="M30-248c87 1 191-15 191 75 0 78-77 80-158 76V0H30v-248zm33 125c57 0 124 11 124-50 0-59-68-47-124-48v98" id="ae"/><path fill="#333" d="M179-190L93 31C79 59 56 82 12 73V49c39 6 53-20 64-50L1-190h34L92-34l54-156h33" id="af"/><g id="o"><use transform="matrix(0.10493827160493824,0,0,0.10493827160493824,0,0)" xlink:href="#ae"/><use transform="matrix(0.10493827160493824,0,0,0.10493827160493824,25.185185185185176,0)" xlink:href="#r"/><use transform="matrix(0.10493827160493824,0,0,0.10493827160493824,46.17283950617282,0)" xlink:href="#af"/></g></defs></g></svg>